<?xml version="1.0" encoding="UTF-8"?>
<svg width="215px" height="36px" viewBox="0 0 215 36" version="1.1" xmlns="http://www.w3.org/2000/svg" xmlns:xlink="http://www.w3.org/1999/xlink">
    <!-- Generator: Sketch 52.6 (67491) - http://www.bohemiancoding.com/sketch -->
    <title>image (5)</title>
    <desc>Created with Sketch.</desc>
    <g id="Page-1" stroke="none" stroke-width="1" fill="none" fill-rule="evenodd">
        <g id="frontpage" transform="translate(-30.000000, -23.000000)" fill="#48DBB4">
            <g id="image-(5)" transform="translate(30.000000, 23.000000)">
                <polygon id="Path" points="39.9272727 8.00520156 39.9272727 0 71.860148 0 71.860148 13.1079324 62.9096195 13.1079324 62.9096195 7.91157347 54.2387949 7.91157347 54.2387949 14.0442133 61.6509514 14.0442133 61.6509514 21.4408322 54.2387949 21.4408322 54.2387949 28.0884265 63.0494715 28.0884265 63.0494715 22.189857 72 22.189857 72 36 39.9272727 36 39.9272727 27.9947984 43.703277 27.9947984 43.703277 8.00520156"></polygon>
                <polygon id="Path" points="73.9636364 8.00520156 73.9636364 0 105.896512 0 105.896512 13.1079324 96.9459831 13.1079324 96.9459831 7.91157347 88.2751586 7.91157347 88.2751586 14.0442133 95.687315 14.0442133 95.687315 21.4408322 88.2751586 21.4408322 88.2751586 28.0884265 97.0858351 28.0884265 97.0858351 22.189857 106.036364 22.189857 106.036364 36 73.9636364 36 73.9636364 27.9947984 77.7396406 27.9947984 77.7396406 8.00520156"></polygon>
                <path d="M138.427631,21.3940182 C137.021115,22.8452536 134.864457,23.3602081 131.676354,23.3602081 L122.346464,23.3602081 L122.346464,27.9947984 L126.425361,27.9947984 L126.425361,36 L108,36 L108,27.9947984 L111.797593,27.9947984 L111.797593,8.00520156 L108,8.00520156 L108,0 L131.676354,0 C134.864457,0 137.021115,0.514954486 138.427631,1.96618986 C140.068566,3.65149545 140.724941,5.47724317 140.724941,11.7035111 C140.771824,17.8829649 140.11545,19.7087126 138.427631,21.3940182 Z M126.800431,15.7295189 C128.300715,15.7295189 128.863322,15.6358908 129.191509,15.3081925 C129.660347,14.793238 129.754115,13.9973992 129.754115,11.7971391 C129.754115,9.59687906 129.660347,8.80104031 129.191509,8.28608583 C128.863322,7.95838752 128.300715,7.86475943 126.800431,7.86475943 L122.393348,7.86475943 L122.393348,15.6827048 L126.800431,15.7295189 Z" id="Shape" fill-rule="nonzero"></path>
                <polygon id="Path" points="142.036364 8.00520156 142.036364 0 173.969239 0 173.969239 13.1079324 165.01871 13.1079324 165.01871 7.91157347 156.347886 7.91157347 156.347886 14.0442133 163.760042 14.0442133 163.760042 21.4408322 156.347886 21.4408322 156.347886 28.0884265 165.158562 28.0884265 165.158562 22.189857 174.109091 22.189857 174.109091 36 142.036364 36 142.036364 27.9947984 145.812368 27.9947984 145.812368 8.00520156"></polygon>
                <polygon id="Path" points="37.9164179 8.00520156 37.9164179 0 19.5956581 0 19.5956581 7.91157347 22.4759837 7.91157347 16.8097693 14.4655397 14.4488467 14.4655397 14.4488467 7.91157347 17.6597015 7.91157347 17.6597015 0 13.3156038 0 13.3156038 2.94928479 10.9546811 2.94928479 10.9546811 0 6.6578019 0 6.6578019 2.94928479 4.29687924 2.94928479 4.29687924 0 0 0 0 8.00520156 3.82469471 8.00520156 3.82469471 17.976593 3.82469471 27.9479844 0 27.9479844 0 35.953186 17.7069199 35.953186 17.7069199 28.0884265 14.4960651 28.0884265 14.4960651 21.5344603 16.8569878 21.5344603 22.5232022 28.0884265 19.6428765 28.0884265 19.6428765 36 37.9636364 36 37.9636364 27.9947984 35.1305292 27.9947984 26.4423338 18.023407 35.0833107 8.0520156 37.9164179 8.0520156"></polygon>
                <g id="Group" transform="translate(176.072727, 0.000000)" fill-rule="nonzero">
                    <path d="M35.5473384,27.9584416 L31.173713,22.8623377 C32.1973275,22.5350649 33.0348302,22.0675325 33.6862212,21.412987 C35.3146988,19.7298701 36.0126177,17.9064935 35.9660898,11.6883117 C35.9660898,5.47012987 35.3146988,3.64675325 33.6862212,1.96363636 C32.2903834,0.514285714 30.1500986,-4.4408921e-15 26.9861993,-4.4408921e-15 L0.23263965,-4.4408921e-15 L0.23263965,7.99480519 L4.00140197,7.99480519 L4.00140197,27.9116883 L0.23263965,27.9116883 L0.23263965,35.9064935 L18.5181161,35.9064935 L18.5181161,27.9584416 L14.4701862,27.9584416 L14.4701862,23.3298701 L19.0764513,23.3298701 L23.1243812,28.0519481 L20.2861774,28.0519481 L20.2861774,35.9532468 L38.3390142,35.9532468 L38.3390142,27.9584416 L35.5473384,27.9584416 Z M14.5167141,7.94805195 L22.1472946,7.94805195 C23.6361884,7.94805195 24.1945235,8.04155844 24.5202191,8.36883117 C24.9854984,8.88311688 25.0785542,9.63116883 25.0785542,11.8753247 C25.0785542,14.0727273 24.9854984,14.8675325 24.5202191,15.3818182 C24.1945235,15.6623377 23.6361884,15.8025974 22.1472946,15.8025974 L14.5167141,15.8025974 L14.5167141,7.94805195 Z" id="Shape"></path>
                </g>
            </g>
        </g>
    </g>
</svg>