<?xml version="1.0" encoding="UTF-8"?>
<svg width="16px" height="20px" viewBox="0 0 16 20" version="1.1" xmlns="http://www.w3.org/2000/svg" xmlns:xlink="http://www.w3.org/1999/xlink">
    <!-- Generator: Sketch 52.6 (67491) - http://www.bohemiancoding.com/sketch -->
    <title>image (2) copy</title>
    <desc>Created with Sketch.</desc>
    <g id="Page-1" stroke="none" stroke-width="1" fill="none" fill-rule="evenodd">
        <g id="Page" transform="translate(-1126.000000, -1009.000000)" fill="#48DBB4">
            <g id="Group-2" transform="translate(282.000000, 773.000000)">
                <g id="active-copy-4" transform="translate(12.000000, 236.000000)">
                    <g id="image-(2)-copy" transform="translate(832.000000, 0.000000)">
                        <path d="M7.59450796,0.170643054 C7.80507328,-0.0383586554 8.12318183,-0.0574933561 8.35398099,0.1249567 L8.35724212,0.127533497 L8.37028665,0.137715887 C8.38229354,0.147003078 8.40060034,0.161213463 8.42513295,0.179915045 C8.47412403,0.217324607 8.54749949,0.272671751 8.64273935,0.342514081 C8.83321907,0.48226354 9.11063759,0.679678541 9.45424225,0.907343112 C10.1433045,1.36385465 11.0901443,1.93634207 12.1316311,2.4101736 C13.1704497,2.88282112 14.007004,3.12322088 14.5754785,3.24532476 C14.8597899,3.30639669 15.077248,3.33792466 15.2196261,3.35409265 C15.290778,3.36217264 15.3432526,3.36642063 15.3758639,3.36859663 C15.3921696,3.36968463 15.4035094,3.37026063 15.4098093,3.37054063 L15.4139599,3.37072463 L15.4153681,3.37076463 C15.7403695,3.37922862 16,3.66606833 16,4.01725198 L16,11.9919079 C16,12.9891069 15.6088866,13.909906 15.0602012,14.7172652 C14.5104041,15.5263044 13.7727214,16.2659036 13.004132,16.915423 C11.668254,18.0443018 10.1640571,18.9610209 9.2381923,19.5251803 C9.10085419,19.6088603 8.97626415,19.6848602 8.8667939,19.7525401 L8.56884508,19.1915807 L8.86864682,19.7514201 C8.33782357,20.0826198 7.66358465,20.0828598 7.1325687,19.7521401 C6.95311012,19.6411802 6.72370435,19.5101404 6.45844096,19.3586205 C5.5376531,18.832781 4.18479497,18.0602218 2.98928644,17.0203829 C1.43340807,15.6671842 0,13.7485462 0,11.1075088 L0,4.01725198 C0,3.84518815 0.0635246901,3.68022832 0.176516148,3.55886044 C0.28937427,3.43763656 0.442287239,3.36990063 0.601485297,3.37058063 L0.604636736,3.37057263 L0.619926254,3.37048463 C0.634247068,3.37034863 0.656697734,3.37002863 0.68663492,3.36926863 C0.746532269,3.36775663 0.836243028,3.36449264 0.950634624,3.35750064 C1.17972169,3.34349266 1.50603495,3.31461269 1.88886212,3.25526075 C2.66112768,3.13552487 3.63246308,2.89635711 4.49683337,2.42810958 C5.40085605,1.93838207 6.17898423,1.37124664 6.73237599,0.924727094 C7.00834183,0.702048918 7.22660046,0.510841111 7.37470029,0.376455647 C7.44872056,0.309299714 7.50504919,0.256443768 7.54225574,0.221074203 C7.5607849,0.203392621 7.57457059,0.190091834 7.58331635,0.181571043 L7.59265504,0.172428652 L7.59450796,0.170643054 Z M1.19823602,4.63620335 L1.19823602,11.1075088 C1.19823602,13.1852667 2.31425448,14.7723051 3.74110323,16.0133439 C4.83489411,16.9646229 6.02765291,17.6467822 6.94634327,18.1722217 C7.2391484,18.3397415 7.50408568,18.4912614 7.72917786,18.6305412 L7.73103078,18.6316612 C7.8911968,18.7315811 8.1088032,18.7315811 8.26896922,18.6316612 L8.27082214,18.6305412 C8.38733347,18.5584613 8.51718579,18.4792614 8.65815561,18.3932615 C9.58965332,17.8250221 11.007282,16.9603029 12.2654857,15.897024 C12.9881969,15.2863046 13.6336045,14.6299053 14.0940169,13.952306 C14.5555411,13.2731866 14.8017566,12.6170273 14.8017566,11.9919079 L14.8017566,4.60021139 C14.6690878,4.57913941 14.5152217,4.55109944 14.3415665,4.51380348 C13.6981601,4.37559562 12.7837092,4.11040388 11.6661787,3.6019804 C10.5513165,3.09474091 9.54874094,2.48752552 8.82743797,2.009614 C8.50503067,1.79599022 8.23709908,1.60707841 8.03846653,1.46277455 C7.88504512,1.59911041 7.68663492,1.76950224 7.44983231,1.96062205 C6.85818896,2.43799757 6.01910727,3.05056495 5.0343197,3.58404441 C4.00987975,4.13901185 2.89798959,4.40542759 2.05922659,4.53547546 C1.72744353,4.5869154 1.43357854,4.61773137 1.19823602,4.63620335 Z" id="Shape"></path>
                        <path d="M8.5,4 C8.77613333,4 9,4.268632 9,4.6 L9,15.4 C9,15.73136 8.77613333,16 8.5,16 C8.22386667,16 8,15.73136 8,15.4 L8,4.6 C8,4.268632 8.22386667,4 8.5,4 Z" id="Path"></path>
                    </g>
                </g>
            </g>
        </g>
    </g>
</svg>