<?xml version="1.0" encoding="UTF-8"?>
<svg width="183px" height="54px" viewBox="0 0 183 54" version="1.1" xmlns="http://www.w3.org/2000/svg" xmlns:xlink="http://www.w3.org/1999/xlink">
    <!-- Generator: Sketch 52.6 (67491) - http://www.bohemiancoding.com/sketch -->
    <title>ChronoLogic</title>
    <desc>Created with Sketch.</desc>
    <g id="Page-1" stroke="none" stroke-width="1" fill="none" fill-rule="evenodd">
        <g id="Page" transform="translate(-30.000000, -1193.000000)" fill="#FFFFFF">
            <g id="ChronoLogic" transform="translate(30.000000, 1193.000000)">
                <path d="M26.5344828,53.5344828 C11.9172414,53.5344828 0,41.6172414 0,27 C0,12.3827586 11.9172414,0.465517241 26.5344828,0.465517241 C41.1517241,0.465517241 53.0689655,12.3827586 53.0689655,27 C53.0689655,41.6172414 41.1517241,53.5344828 26.5344828,53.5344828 Z M26.5344828,2.5137931 C13.0344828,2.5137931 2.04827586,13.5 2.04827586,27 C2.04827586,40.5 13.0344828,51.4862069 26.5344828,51.4862069 C40.0344828,51.4862069 51.0206897,40.5 51.0206897,27 C51.0206897,13.5 40.0344828,2.5137931 26.5344828,2.5137931 Z" id="Shape" fill-rule="nonzero" opacity="0.15"></path>
                <path d="M26.5344828,53.5344828 C11.9172414,53.5344828 0,41.6172414 0,27 C0,12.3827586 11.9172414,0.465517241 26.5344828,0.465517241 C33.8896552,0.465517241 40.9655172,3.53793103 45.9931034,8.93793103 L44.5034483,10.3344828 C39.8482759,5.4 33.3310345,2.5137931 26.5344828,2.5137931 C13.0344828,2.5137931 2.04827586,13.5 2.04827586,27 C2.04827586,40.5 13.0344828,51.4862069 26.5344828,51.4862069 C33.3310345,51.4862069 39.8482759,48.6931034 44.4103448,43.6655172 L45.9,45.062069 C40.8724138,50.462069 33.7965517,53.5344828 26.5344828,53.5344828 Z" id="Path"></path>
                <polygon id="Path" points="35.8448276 28.3034483 25.4172414 28.3034483 25.4172414 12.3827586 27.4655172 12.3827586 27.4655172 26.2551724 35.8448276 26.2551724"></polygon>
                <path d="M68.9896552,14.7103448 C68.9896552,10.6137931 72.062069,7.72758621 75.8793103,7.82068966 C78.3,7.82068966 79.9758621,8.93793103 81,10.5206897 L79.6034483,11.2655172 C78.8586207,10.1482759 77.462069,9.31034483 75.8793103,9.31034483 C72.9931034,9.31034483 70.7586207,11.5448276 70.7586207,14.7103448 C70.7586207,17.8758621 72.9931034,20.2034483 75.8793103,20.2034483 C77.462069,20.2034483 78.8586207,19.3655172 79.6034483,18.2482759 L81,18.9931034 C79.8827586,20.4827586 78.2068966,21.6 75.7862069,21.6 C72.062069,21.6931034 68.9896552,18.9 68.9896552,14.7103448 Z" id="Path"></path>
                <polygon id="Path" points="98.7827586 15.362069 90.962069 15.362069 90.962069 21.5068966 89.2862069 21.5068966 89.3793103 8.1 91.0551724 8.1 91.0551724 13.8724138 98.8758621 13.8724138 98.8758621 8.1 100.551724 8.1 100.458621 21.5068966 98.7827586 21.5068966"></polygon>
                <path d="M113.958621,16.2931034 L111.258621,16.2931034 L111.258621,21.6 L109.582759,21.6 L109.675862,8.19310345 L115.075862,8.19310345 C117.496552,8.19310345 119.265517,9.77586207 119.265517,12.2896552 C119.265517,14.7103448 117.589655,16.0137931 115.727586,16.2 L119.358621,21.6931034 L117.403448,21.6931034 L113.958621,16.2931034 Z M114.889655,9.68275862 L111.351724,9.68275862 L111.351724,14.8034483 L114.889655,14.8034483 C116.472414,14.8034483 117.589655,13.7793103 117.589655,12.1965517 C117.496552,10.7068966 116.472414,9.68275862 114.889655,9.68275862 Z" id="Shape" fill-rule="nonzero"></path>
                <path d="M134.068966,8.00689655 C138.072414,8.00689655 140.772414,10.9862069 140.67931,14.9896552 C140.67931,18.9931034 137.97931,21.9724138 133.975862,21.8793103 C129.972414,21.8793103 127.272414,18.9 127.365517,14.8965517 C127.458621,10.9862069 130.065517,8.00689655 134.068966,8.00689655 Z M134.068966,9.49655172 C131.089655,9.49655172 129.134483,11.8241379 129.134483,14.8965517 C129.134483,18.062069 130.996552,20.3896552 134.068966,20.3896552 C137.048276,20.3896552 139.003448,18.062069 139.003448,14.9896552 C139.003448,11.8241379 137.048276,9.49655172 134.068966,9.49655172 Z" id="Shape" fill-rule="nonzero"></path>
                <polygon id="Path" points="151.106897 10.8931034 151.106897 21.6931034 149.431034 21.6931034 149.524138 8.2862069 151.2 8.2862069 158.927586 18.9 158.927586 8.2862069 160.603448 8.2862069 160.510345 21.6931034 158.927586 21.6931034"></polygon>
                <path d="M175.872414,8.19310345 C179.875862,8.19310345 182.575862,11.1724138 182.482759,15.1758621 C182.482759,19.1793103 179.782759,22.1586207 175.77931,22.0655172 C171.775862,22.0655172 169.075862,19.0862069 169.168966,15.0827586 C169.168966,11.1724138 171.868966,8.19310345 175.872414,8.19310345 Z M175.872414,9.68275862 C172.893103,9.68275862 170.937931,12.0103448 170.937931,15.0827586 C170.937931,18.2482759 172.8,20.5758621 175.872414,20.5758621 C178.851724,20.5758621 180.806897,18.2482759 180.806897,15.1758621 C180.806897,12.0103448 178.851724,9.68275862 175.872414,9.68275862 Z" id="Shape" fill-rule="nonzero"></path>
                <polygon id="Path" points="69.6413793 32.4931034 71.3172414 32.4931034 71.3172414 44.4103448 77.5551724 44.4103448 77.5551724 45.9 69.6413793 45.9"></polygon>
                <path d="M91.3344828,32.2137931 C95.337931,32.2137931 98.037931,35.1931034 98.037931,39.1965517 C98.037931,43.2 95.337931,46.1793103 91.3344828,46.1793103 C87.3310345,46.1793103 84.6310345,43.2 84.6310345,39.1965517 C84.6310345,35.1931034 87.4241379,32.3068966 91.3344828,32.2137931 Z M91.3344828,33.7034483 C88.3551724,33.7034483 86.4,36.0310345 86.4,39.1965517 C86.4,42.362069 88.3551724,44.6896552 91.3344828,44.6896552 C94.3137931,44.6896552 96.2689655,42.362069 96.2689655,39.1965517 C96.362069,36.0310345 94.4068966,33.7034483 91.3344828,33.7034483 Z" id="Shape" fill-rule="nonzero"></path>
                <path d="M113.027586,32.2137931 C115.448276,32.2137931 117.031034,33.237931 118.241379,34.7275862 L116.937931,35.5655172 C116.1,34.4482759 114.703448,33.7034483 113.027586,33.7034483 C110.048276,33.7034483 107.813793,35.937931 107.813793,39.1965517 C107.813793,42.362069 110.048276,44.6896552 113.027586,44.6896552 C114.610345,44.6896552 116.006897,43.8517241 116.658621,43.2 L116.658621,40.5 L112.003448,40.5 L112.003448,39.0103448 L118.334483,39.0103448 L118.334483,43.8517241 C117.124138,45.2482759 115.262069,46.1793103 113.027586,46.1793103 C109.210345,46.1793103 106.137931,43.3862069 106.137931,39.1965517 C106.137931,35.0068966 109.210345,32.2137931 113.027586,32.2137931 Z" id="Path"></path>
                <polygon id="Path" points="127.086207 32.4 128.762069 32.4 128.762069 45.8068966 127.086207 45.8068966"></polygon>
                <path d="M137.42069,39.1034483 C137.42069,35.0068966 140.493103,32.1206897 144.217241,32.1206897 C146.637931,32.1206897 148.313793,33.237931 149.337931,34.7275862 L147.941379,35.4724138 C147.196552,34.3551724 145.8,33.5172414 144.217241,33.5172414 C141.331034,33.5172414 139.096552,35.7517241 139.096552,39.0103448 C139.096552,42.1758621 141.331034,44.5034483 144.217241,44.5034483 C145.8,44.5034483 147.196552,43.6655172 147.941379,42.5482759 L149.337931,43.2931034 C148.22069,44.7827586 146.637931,45.9931034 144.124138,45.9931034 C140.493103,46.0862069 137.42069,43.2931034 137.42069,39.1034483 Z" id="Path"></path>
            </g>
        </g>
    </g>
</svg>