<?xml version="1.0" encoding="UTF-8"?>
<svg width="15px" height="12px" viewBox="0 0 15 12" version="1.1" xmlns="http://www.w3.org/2000/svg" xmlns:xlink="http://www.w3.org/1999/xlink">
    <!-- Generator: Sketch 52.6 (67491) - http://www.bohemiancoding.com/sketch -->
    <title>discord</title>
    <desc>Created with Sketch.</desc>
    <g id="Page-1" stroke="none" stroke-width="1" fill="none" fill-rule="evenodd">
        <g id="Page" transform="translate(-13.000000, -239.000000)" fill="#0A0806">
            <g id="sidebar" transform="translate(0.000000, 81.000000)">
                <g id="discord" transform="translate(13.000000, 158.000000)">
                    <path d="M13.802102,5.09372162 C13.3571167,3.65482425 13.0711362,2.98857949 12.9402247,2.71944385 L12.9401676,2.7193569 C12.834925,2.4990338 12.5681962,2.02493768 12.5575864,2.00609674 C12.5202238,1.95974801 11.5939745,0.833233492 9.36154698,4.11916792e-16 L9.06655385,0.816247657 C10.1221176,1.21022628 10.8446126,1.6651916 11.2921648,2.00725618 C10.0559488,1.63261126 8.58600282,1.40333147 7.28410285,1.40333147 C5.98063421,1.40333147 4.50891996,1.63327794 3.27179126,2.00873447 C3.68614495,1.69629365 4.43961383,1.21266111 5.50165184,0.816247657 L5.20665871,0 C2.97425976,0.833233492 2.0479819,1.95974801 2.01061933,2.00609674 C2.01061933,2.00609674 1.7905795,2.36708922 1.60570611,2.76347369 C1.49490186,3.0010435 1.2078661,3.54348876 0.763308631,5.1031131 C0.205750793,7.05967265 0.00772920222,9.82520435 0,9.93584417 C0.0984261139,10.15466 1.23926777,12 4.30921562,12 L5.15044374,10.7620051 C5.84478849,10.9450521 6.56109445,11.0376626 7.28415989,11.0376626 C8.00876547,11.0376626 8.72649747,10.9446463 9.42215419,10.7608746 L10.2581915,12 C13.3892029,12 14.4112259,10.2174728 14.5714286,9.93085857 C14.5590504,9.79911689 14.2489697,6.53882201 13.802102,5.09372162 Z M12.9826925,10.3642872 C12.3314715,10.8327021 11.5663661,11.0883592 10.7057722,11.1256643 L10.2741633,10.4859707 C10.8694259,10.2579953 11.4405313,9.96135191 11.9772117,9.59830142 L11.5031064,8.87443236 C10.9044783,9.2793967 10.2581915,9.59273609 9.5817009,9.80969681 L9.5817009,9.8105374 C9.5817009,9.8105374 8.46150848,10.1680805 7.28418841,10.1680805 C6.10686834,10.1680805 4.98981323,9.8115809 4.98981323,9.8115809 L4.98981323,9.81068233 C4.31218181,9.59369263 3.66481121,9.28000541 3.0652704,8.87443236 L2.59113661,9.59827243 C3.12875824,9.96196062 3.70094737,10.2590098 4.29735087,10.4871302 L3.86346027,11.1256643 C3.00249559,11.0885331 2.2370764,10.832847 1.5856273,10.3642582 C1.22244036,10.1030068 0.988453732,9.83816112 0.875995266,9.69557866 C0.925621878,9.09997295 1.12869169,6.94691685 1.58528504,5.34503082 C1.92796536,4.14283368 2.16451887,3.5802431 2.29366215,3.30861466 C2.29366215,3.30861466 5.60521174,2.2728845 7.28418841,2.2728845 C8.96179607,2.2728845 11.0086656,2.6964579 12.2635059,3.30322325 C12.3991805,3.61737425 12.6407252,4.2382848 12.9858583,5.35442231 C13.3499865,6.53192332 13.6215923,9.03414559 13.6893298,9.69934685 C13.5752171,9.84343659 13.3422858,10.1056156 12.9826925,10.3642872 Z" id="Shape" fill-rule="nonzero"></path>
                    <polygon id="Path" points="4.28571429 6 5.14285714 6 5.14285714 7.71428571 4.28571429 7.71428571"></polygon>
                    <polygon id="Path" points="9.42857143 6 10.2857143 6 10.2857143 7.71428571 9.42857143 7.71428571"></polygon>
                </g>
            </g>
        </g>
    </g>
</svg>