<?xml version="1.0" encoding="UTF-8"?>
<svg width="17px" height="28px" viewBox="0 0 17 28" version="1.1" xmlns="http://www.w3.org/2000/svg" xmlns:xlink="http://www.w3.org/1999/xlink">
    <!-- Generator: Sketch 52.6 (67491) - http://www.bohemiancoding.com/sketch -->
    <title>image (1)</title>
    <desc>Created with Sketch.</desc>
    <g id="Page-1" stroke="none" stroke-width="1" fill="none" fill-rule="evenodd">
        <g id="Page" transform="translate(-781.000000, -305.000000)" fill="#4C4C4C" fill-rule="nonzero">
            <g id="Payment" transform="translate(639.000000, 256.000000)">
                <g id="image-(1)" transform="translate(141.000000, 49.411765)">
                    <path d="M1.04609859,12.7828118 L1.04608694,12.7828118 L1.04523776,12.7842941 C0.859369765,13.1037412 0.962796706,13.5129765 1.27804235,13.706 L8.54616706,18.1563412 C8.67624353,18.2359647 8.83213412,18.3256471 8.99728941,18.3705412 C9.16581176,18.4162824 9.35077765,18.4171294 9.53011059,18.3112471 L17.0753294,13.8552941 C17.4009176,13.6630118 17.5072235,13.2423412 17.3119765,12.9186588 L9.76673647,0.410998824 C9.61395882,0.157749412 9.38040353,0.0183807059 9.13664118,0.0175696471 C8.89250824,0.0167585882 8.66002235,0.155007059 8.51037882,0.411697647 C8.51023059,0.411941176 8.51008235,0.412195294 8.50993412,0.412449412 L1.04609859,12.7828118 Z M9.05049529,20.1321059 L2.08375412,15.8527647 C1.72296,15.6311529 1.31355529,16.0582824 1.55289176,16.4089647 L8.36769176,26.3942 C8.51881765,26.6156 8.80437176,26.7052824 9.06759529,26.6996706 C9.33104118,26.6940588 9.61315412,26.5926235 9.76398353,26.3804353 L16.8580588,16.4006 C17.1041294,16.0542588 16.7024118,15.6192941 16.3375412,15.8345529 L9.05049529,20.1321059 Z M9.78357176,21.2747882 L13.1102471,19.3168118 L9.78357176,23.9171882 L9.78357176,21.2747882 Z M5.24330471,19.3776941 L8.48418353,21.275 L8.48418353,23.8591647 L5.24330471,19.3776941 Z M8.49557647,3.20297882 L8.49557647,16.4273882 L2.55915529,12.8935647 L8.49557647,3.20297882 Z M9.86444471,16.5336941 L9.86444471,3.20795529 L15.7916118,13.0333294 L9.86444471,16.5336941 Z" id="Shape"></path>
                </g>
            </g>
        </g>
    </g>
</svg>