<?xml version="1.0" encoding="UTF-8"?>
<svg width="12px" height="12px" viewBox="0 0 12 12" version="1.1" xmlns="http://www.w3.org/2000/svg" xmlns:xlink="http://www.w3.org/1999/xlink">
    <!-- Generator: Sketch 52.6 (67491) - http://www.bohemiancoding.com/sketch -->
    <title>Shape</title>
    <desc>Created with Sketch.</desc>
    <g id="Page-1" stroke="none" stroke-width="1" fill="none" fill-rule="evenodd">
        <g id="Page" transform="translate(-13.000000, -109.000000)" fill="#0A0806">
            <g id="sidebar" transform="translate(0.000000, 81.000000)">
                <path d="M18.776752,28.07554 C18.910432,27.9747831 19.094752,27.9748238 19.228384,28.0756398 L24.662368,32.1751264 C24.672352,32.1826768 24.682,32.1907216 24.691168,32.1992368 C24.874768,32.3690752 24.985264,32.6035072 24.999376,32.853184 C24.999808,32.86024 25,32.867296 25,32.8744 L25,39.136096 L25,39.137632 C24.99808,39.613456 24.612496,39.99856 24.136624,40 L24.13552,40 L20.874976,40 C20.667904,40 20.5,39.832144 20.5,39.625024 L20.5,37.000384 C20.5,36.172048 19.828432,35.500576 19,35.500576 C18.171568,35.500576 17.5,36.172048 17.5,37.000384 L17.5,39.623536 C17.5,39.830608 17.3321056,39.998512 17.125,39.998512 L13.864,39.998512 L13.8628528,39.998512 C13.3869174,39.997024 13.001455,39.611632 13.0000018,39.13576 L13,39.134608 L13,32.8744 C13,32.867488 13.0001907,32.860576 13.000572,32.853712 C13.0144024,32.603608 13.1250962,32.368744 13.3091867,32.1988864 C13.3183134,32.1904624 13.3278525,32.182504 13.3377698,32.1750256 L18.776752,28.07554 Z M13.8078208,32.7598384 C13.7748112,32.7945808 13.7544016,32.839504 13.75,32.887312 L13.75,39.13384 C13.7503936,39.197056 13.8015424,39.248176 13.864744,39.248608 L16.75,39.248608 L16.75,37.000384 C16.75,35.757904 17.7573616,34.750672 19,34.750672 C20.242624,34.750672 21.25,35.757904 21.25,37.000384 L21.25,39.250096 L24.134752,39.250096 C24.19816,39.249664 24.249472,39.198448 24.25,39.13504 L24.25,32.887648 C24.245488,32.8396 24.224992,32.7945424 24.19192,32.7596176 L19.0024,28.844584 L13.8078208,32.7598384 Z" id="Shape"></path>
            </g>
        </g>
    </g>
</svg>