<?xml version="1.0" encoding="UTF-8"?>
<svg width="24px" height="18px" viewBox="0 0 24 18" version="1.1" xmlns="http://www.w3.org/2000/svg" xmlns:xlink="http://www.w3.org/1999/xlink">
    <!-- Generator: Sketch 52.6 (67491) - http://www.bohemiancoding.com/sketch -->
    <title>envelope</title>
    <desc>Created with Sketch.</desc>
    <g id="Page-1" stroke="none" stroke-width="1" fill="none" fill-rule="evenodd">
        <g id="Page" transform="translate(-1433.000000, -310.000000)" fill="#4C4C4C" fill-rule="nonzero">
            <g id="Email" transform="translate(1295.000000, 256.000000)">
                <g id="envelope" transform="translate(138.000000, 54.000000)">
                    <path d="M21.7073,7.10542736e-16 L2.2456,7.10542736e-16 C1.0073,7.10542736e-16 0,1.0073 0,2.2456 L0,15.7191 C0,16.9574 1.0073,17.9647 2.2456,17.9647 L21.7073,17.9647 C22.9456,17.9647 23.9529,16.9574 23.9529,15.7191 L23.9529,2.2456 C23.9529,1.0073 22.9456,0 21.7073,7.10542736e-16 Z M21.7073,1.49705 C21.809,1.49705 21.90575,1.51815 21.9942,1.555 L11.97645,10.23745 L1.95865,1.555 C2.0471,1.5182 2.14385,1.49705 2.24555,1.49705 L21.7073,1.49705 Z M21.7073,16.4676 L2.2456,16.4676 C1.8326,16.4676 1.49705,16.1321 1.49705,15.71905 L1.49705,3.13665 L11.48595,11.7937 C11.62705,11.91575 11.80175,11.97645 11.97645,11.97645 C12.15115,11.97645 12.32585,11.9158 12.46695,11.7937 L22.45585,3.13665 L22.45585,15.7191 C22.4558,16.1321 22.1203,16.4676 21.7073,16.4676 Z" id="Shape"></path>
                </g>
            </g>
        </g>
    </g>
</svg>