<?xml version="1.0" encoding="UTF-8"?>
<svg width="40px" height="38px" viewBox="0 0 40 38" version="1.1" xmlns="http://www.w3.org/2000/svg" xmlns:xlink="http://www.w3.org/1999/xlink">
    <!-- Generator: Sketch 52.6 (67491) - http://www.bohemiancoding.com/sketch -->
    <title>Fill 1</title>
    <desc>Created with Sketch.</desc>
    <g id="Generator" stroke="none" stroke-width="1" fill="none" fill-rule="evenodd" fill-opacity="0.85">
        <g id="Wallet" transform="translate(-306.000000, -201.000000)" fill="#000000">
            <g id="Group-2" transform="translate(175.000000, 146.000000)">
                <path d="M169.008,55 L156.286,59.753 L145.714,59.753 L132.976,55 L131,60.945 L132.333,67.345 L131.486,67.973 L132.741,68.93 L131.785,69.683 L133.039,70.828 L132.255,71.393 L134.059,73.51 L131.33,82.012 L133.87,90.687 L142.765,88.24 L144.49,89.652 L147.988,92.083 L153.996,92.083 L157.51,89.652 L159.235,88.24 L168.13,90.687 L170.686,82.012 L167.925,73.51 L169.745,71.393 L168.961,70.828 L170.216,69.683 L169.243,68.93 L170.498,67.973 L169.667,67.345 L171,60.945 L169.008,55 Z M155.518,77.055 L158.655,78.483 L154.216,79.784 L155.518,77.055 Z M143.361,78.483 L146.498,77.055 L147.784,79.784 L143.361,78.483 Z M148.067,85.651 L148.82,85.134 L153.165,85.134 L153.918,85.651 L154.342,89.118 L153.949,88.773 L148.035,88.773 L147.674,89.118 L148.067,85.651 Z" id="Fill-1"></path>
            </g>
        </g>
    </g>
</svg>