<?xml version="1.0" encoding="UTF-8"?>
<svg width="18px" height="18px" viewBox="0 0 18 18" version="1.1" xmlns="http://www.w3.org/2000/svg" xmlns:xlink="http://www.w3.org/1999/xlink">
    <!-- Generator: Sketch 52.6 (67491) - http://www.bohemiancoding.com/sketch -->
    <title>image (4)</title>
    <desc>Created with Sketch.</desc>
    <g id="Page-1" stroke="none" stroke-width="1" fill="none" fill-rule="evenodd">
        <g id="Page" transform="translate(-1125.000000, -833.000000)" fill="#4C4C4C">
            <g id="Group-2" transform="translate(282.000000, 773.000000)">
                <g id="redeemed" transform="translate(12.000000, 60.000000)">
                    <g id="image-(4)" transform="translate(831.000000, 0.000000)">
                        <path d="M0,9 C0,4.0294368 4.0294368,0 9,0 C13.970592,0 18,4.0294368 18,9 C18,13.970592 13.970592,18 9,18 C4.0294368,18 0,13.970592 0,9 Z M9,1.125 C4.6507608,1.125 1.125,4.6507608 1.125,9 C1.125,13.349232 4.6507608,16.875 9,16.875 C13.349232,16.875 16.875,13.349232 16.875,9 C16.875,4.6507608 13.349232,1.125 9,1.125 Z M13.848768,4.680432 C14.092488,4.873068 14.13396,5.2268112 13.941288,5.4705312 L8.061984,12.909096 C7.798104,13.253256 7.38468,13.449672 6.9509808,13.436712 C6.5177424,13.423752 6.117264,13.203504 5.8743072,12.844944 L4.0401864,10.242 C3.8612448,9.988056 3.9220488,9.637128 4.176,9.458136 C4.4299512,9.279216 4.780872,9.340056 4.9598136,9.594 L6.7973184,12.201768 L6.8049216,12.212784 C6.8452344,12.273048 6.9121512,12.310056 6.984576,12.312216 C7.0570008,12.314376 7.1260056,12.2814 7.1698392,12.223728 L7.1764488,12.21516 L13.058712,4.7729376 C13.251312,4.5292104 13.605048,4.487796 13.848768,4.680432 Z" id="Shape"></path>
                    </g>
                </g>
            </g>
        </g>
    </g>
</svg>