<?xml version="1.0" encoding="UTF-8"?>
<svg width="18px" height="23px" viewBox="0 0 18 23" version="1.1" xmlns="http://www.w3.org/2000/svg" xmlns:xlink="http://www.w3.org/1999/xlink">
    <!-- Generator: Sketch 52.6 (67491) - http://www.bohemiancoding.com/sketch -->
    <title>image (2)</title>
    <desc>Created with Sketch.</desc>
    <g id="Page-1" stroke="none" stroke-width="1" fill="none" fill-rule="evenodd">
        <g id="Page" transform="translate(-1109.000000, -308.000000)" fill="#4C4C4C">
            <g id="Operator" transform="translate(968.000000, 256.000000)">
                <g id="image-(2)" transform="translate(141.000000, 52.000000)">
                    <path d="M8.54382145,0.191973436 C8.78070744,-0.0431534873 9.13857955,-0.0646800256 9.39822861,0.140576288 L9.40189739,0.143475185 L9.41657248,0.154930373 C9.43008023,0.165378463 9.45067539,0.181365146 9.47827457,0.202404425 C9.53338954,0.244490183 9.61593693,0.30675572 9.72308177,0.385328341 C9.93737145,0.542546482 10.2494673,0.764638359 10.6360225,1.020761 C11.4112176,1.53433648 12.4764124,2.17838483 13.648085,2.7114453 C14.8167559,3.24317376 15.7578795,3.51362349 16.3974133,3.65099035 C16.7172636,3.71969628 16.9619041,3.75516524 17.1220793,3.77335423 C17.2021253,3.78244422 17.2611592,3.78722321 17.2978469,3.78967121 C17.3161908,3.79089521 17.3289481,3.79154321 17.3360355,3.79185821 L17.3407048,3.79206521 L17.3422891,3.79211021 C17.7079157,3.8016322 18,4.12432687 18,4.51940847 L18,13.4908964 C18,14.6127453 17.5599974,15.6486443 16.9427264,16.5569233 C16.3242046,17.4670924 15.4943115,18.2991416 14.6296485,19.0298509 C13.1267857,20.2998396 11.4345643,21.3311485 10.3929663,21.9658279 C10.238461,22.0599678 10.0982972,22.1454677 9.97514314,22.2216076 L9.63995071,21.5905283 L9.97722767,22.2203476 C9.38005151,22.5929473 8.62153273,22.5932173 8.02413978,22.2211576 C7.82224888,22.0963278 7.56416739,21.9489079 7.26574608,21.7784481 C6.22985973,21.1868787 4.70789435,20.3177496 3.36294725,19.1479307 C1.61258408,17.6255823 0,15.4671144 0,12.4959474 L0,4.51940847 C0,4.32583667 0.0714652764,4.14025686 0.198580667,4.00371799 C0.325546054,3.86734113 0.497573144,3.79113821 0.676670959,3.79190321 L0.680216328,3.79189421 L0.697417036,3.79179521 C0.713527951,3.79164221 0.738784951,3.79128221 0.772464285,3.79042721 C0.839848802,3.78872621 0.940773407,3.78505421 1.06946395,3.77718822 C1.3271869,3.76142924 1.69428931,3.72893927 2.12496989,3.66216834 C2.99376864,3.52746547 4.08652097,3.25840175 5.05893754,2.73162328 C6.07596305,2.18067983 6.95135726,1.54265247 7.57392299,1.04031798 C7.88438455,0.789805033 8.12992551,0.57469625 8.29653783,0.423512602 C8.37981063,0.347962179 8.44318034,0.288499238 8.48503771,0.248708479 C8.50588301,0.228816699 8.52139191,0.213853314 8.53123089,0.204267423 L8.54173692,0.193982234 L8.54382145,0.191973436 Z M1.34801553,5.21572877 L1.34801553,12.4959474 C1.34801553,14.8334251 2.60353629,16.6188433 4.20874113,18.0150119 C5.43925587,19.0852008 6.78110953,19.85263 7.81463618,20.4437494 C8.14404195,20.6322092 8.44209639,20.8026691 8.69532509,20.9593589 L8.69740962,20.9606189 C8.8775964,21.0730288 9.1224036,21.0730288 9.30259038,20.9606189 L9.30467491,20.9593589 C9.43575015,20.878269 9.58183402,20.7891691 9.74042506,20.6924192 C10.78836,20.0531498 12.3831922,19.0803408 13.7986715,17.884152 C14.6117215,17.1970927 15.337805,16.4586434 15.8557691,15.6963442 C16.3749838,14.932335 16.6519761,14.1941557 16.6519761,13.4908964 L16.6519761,5.17523781 C16.5027238,5.15153184 16.3296244,5.11998687 16.1342623,5.07802891 C15.4104301,4.92254507 14.3816728,4.62420437 13.1244511,4.05222795 C11.8702311,3.48158352 10.7423336,2.79846621 9.93086772,2.26081575 C9.5681595,2.02048899 9.26673646,1.80796321 9.04327484,1.64562137 C8.87067576,1.79899922 8.64746429,1.99069002 8.38106135,2.20569981 C7.71546258,2.74274727 6.77149567,3.43188557 5.66360966,4.03204997 C4.51111471,4.65638834 3.26023828,4.95610603 2.31662992,5.10240989 C1.94337397,5.16027983 1.61277585,5.19494779 1.34801553,5.21572877 Z" id="Shape"></path>
                    <path d="M9.5625,4.5 C9.87315,4.5 10.125,4.802211 10.125,5.175 L10.125,17.325 C10.125,17.69778 9.87315,18 9.5625,18 C9.25185,18 9,17.69778 9,17.325 L9,5.175 C9,4.802211 9.25185,4.5 9.5625,4.5 Z" id="Path"></path>
                </g>
            </g>
        </g>
    </g>
</svg>