<?xml version="1.0" encoding="UTF-8"?>
<svg width="28px" height="40px" viewBox="0 0 28 40" version="1.1" xmlns="http://www.w3.org/2000/svg" xmlns:xlink="http://www.w3.org/1999/xlink">
    <!-- Generator: Sketch 52.6 (67491) - http://www.bohemiancoding.com/sketch -->
    <title>Group 3</title>
    <desc>Created with Sketch.</desc>
    <defs>
        <polygon id="path-1" points="0 0 27.53 0 27.53 40 0 40"></polygon>
    </defs>
    <g id="Generator" stroke="none" stroke-width="1" fill="none" fill-rule="evenodd">
        <g id="Wallet" transform="translate(-627.000000, -200.000000)">
            <g id="Group-2-Copy-2" transform="translate(490.000000, 146.000000)">
                <g id="Group-3" transform="translate(137.000000, 54.000000)">
                    <mask id="mask-2" fill="white">
                        <use xlink:href="#path-1"></use>
                    </mask>
                    <g id="Clip-2"></g>
                    <path d="M13.7657,17.929 C18.2787,17.929 22.0657,18.278 22.0657,18.904 L22.0657,31.018 C22.0657,31.207 22.0427,31.229 21.8767,31.296 C21.7167,31.368 14.1807,34.087 14.1807,34.087 C14.1807,34.087 13.8757,34.18 13.7867,34.18 C13.6937,34.18 13.3947,34.064 13.3947,34.064 C13.3947,34.064 5.8587,31.346 5.6977,31.273 C5.5367,31.202 5.5097,31.179 5.5097,30.997 L5.5097,18.882 C5.4647,18.256 9.2527,17.929 13.7657,17.929 M13.7867,4.745 C17.0207,4.745 18.9757,6.7 18.9757,9.933 L18.9757,13.167 C15.3487,12.912 12.2537,12.912 8.6047,13.167 L8.6047,9.933 C8.6047,6.694 10.5597,4.745 13.7867,4.745 M13.7867,0 C8.2997,0 3.8597,4.441 3.8597,9.928 L3.8597,13.649 C1.9327,13.998 -0.0003,14.463 -0.0003,15.066 L-0.0003,34.485 C-0.0003,34.485 -0.0003,35.022 0.6037,35.277 C2.7907,36.163 11.3957,39.208 13.3717,39.906 C13.6267,40 13.6997,40 13.7657,40 C13.8597,40 13.9037,40 14.1587,39.906 C16.1347,39.208 24.7617,36.163 26.9497,35.277 C27.5077,35.045 27.5307,34.508 27.5307,34.508 L27.5307,15.066 C27.5307,14.463 25.6257,13.976 23.6937,13.649 L23.6937,9.928 C23.7207,4.441 19.2527,0 13.7867,0" id="Fill-1" fill-opacity="0.85" fill="#000000" mask="url(#mask-2)"></path>
                </g>
            </g>
        </g>
    </g>
</svg>