<?xml version="1.0" encoding="UTF-8"?>
<svg width="14px" height="12px" viewBox="0 0 14 12" version="1.1" xmlns="http://www.w3.org/2000/svg" xmlns:xlink="http://www.w3.org/1999/xlink">
    <!-- Generator: Sketch 52.6 (67491) - http://www.bohemiancoding.com/sketch -->
    <title>Shape</title>
    <desc>Created with Sketch.</desc>
    <g id="Page-1" stroke="none" stroke-width="1" fill="none" fill-rule="evenodd">
        <g id="Page" transform="translate(-13.000000, -171.000000)" fill="#0A0806" fill-rule="nonzero">
            <g id="sidebar" transform="translate(0.000000, 81.000000)">
                <g id="zen" transform="translate(13.000000, 90.000000)">
                    <path d="M12.3511111,1.67777778 L8.30666667,6.54666667 L8.30666667,1.67777778 L12.3511111,1.67777778 Z M5.56888889,1.67777778 C5.24222222,2.65777778 4.32444444,3.35777778 3.23555556,3.35777778 C2.14666667,3.35777778 1.22888889,2.65777778 0.902222222,1.67777778 L5.56888889,1.67777778 Z M5.69333333,5.86222222 L5.69333333,10.7311111 L1.64888889,10.7311111 L5.69333333,5.86222222 Z M10.7644444,9.05111111 C11.8377778,9.05111111 12.7711111,9.75111111 13.0977778,10.7311111 L8.43111111,10.7311111 C8.75777778,9.76666667 9.67555556,9.05111111 10.7644444,9.05111111 Z M14,0.9 L7.52888889,0.9 L7.52888889,8.70888889 L14,0.9 Z M6.47111111,0.9 L0,0.9 C0,2.68888889 1.44666667,4.13555556 3.23555556,4.13555556 C5.02444444,4.13555556 6.47111111,2.68888889 6.47111111,0.9 Z M6.47111111,3.7 L0,11.5088889 L6.47111111,11.5088889 L6.47111111,3.7 Z M10.7644444,8.27333333 C8.97555556,8.27333333 7.52888889,9.72 7.52888889,11.5088889 L14,11.5088889 C14,9.72 12.5533333,8.27333333 10.7644444,8.27333333 Z" id="Shape"></path>
                </g>
            </g>
        </g>
    </g>
</svg>